<?xml version="1.0" standalone="no"?>
<!DOCTYPE svg PUBLIC "-//W3C//DTD SVG 1.1//EN" "http://www.w3.org/Graphics/SVG/1.1/DTD/svg11.dtd" >
<!--
2013-9-30: Created.
-->
<svg>
<metadata>
Created by iconfont
</metadata>
<defs>

<font id="iconfont" horiz-adv-x="1024" >
  <font-face
    font-family="iconfont"
    font-weight="500"
    font-stretch="normal"
    units-per-em="1024"
    ascent="896"
    descent="-128"
  />
    <missing-glyph />
    
    <glyph glyph-name="zu" unicode="&#58904;" d="M957.740412 384.970094c0-246.710938-199.998033-446.708971-446.707948-446.708971-246.711961 0-446.711018 199.998033-446.711018 446.708971S264.319479 831.680089 511.032464 831.680089C757.741355 831.680089 957.740412 631.681032 957.740412 384.970094zM454.25125 301.675016c11.167341 9.593496 11.992125 22.372543 2.39863 38.373982-16.001439 23.984251-46.393633 64.756863-91.13872 122.317837l0 11.992125 67.154469 0c12.779048 0 19.186991 7.194866 19.186991 21.585621 0 12.779048-6.407943 19.186991-19.186991 19.186991l-67.154469 0 0 100.732216c27.169803 6.371104 47.142693 11.167341 59.959603 14.390755 12.779048 4.797259 18.362206 14.390755 16.788361 28.780487-4.797259 12.779048-14.390755 17.575284-28.780487 14.390755-46.393633-11.205203-98.333586-18.400069-155.894559-21.585621-16.001439-1.611707-23.984251-9.593496-23.984251-23.984251 1.573845-14.390755 10.380418-21.585621 26.381857-21.585621 7.981788 0 18.362206 0.786922 31.179117 2.39863 15.9646 0 26.381857 0.786922 31.179117 2.39863l0-95.934956-86.34146 0c-14.390755 0-22.409382-6.407943-23.984251-19.186991 0-14.390755 7.194866-21.585621 21.585621-21.585621l76.747965 0c-20.798698-54.375421-51.189869-110.325711-91.13872-167.886685-9.593496-12.814864-8.806573-24.806989 2.39863-35.975353 11.167341-8.018627 23.159466-5.619998 35.975353 7.194866 30.354332 46.356794 51.939953 85.517699 64.75584 117.520577l0-261.423011c1.573845-11.166317 8.768711-16.788361 21.585621-16.788361 14.390755 1.610684 21.585621 8.020674 21.585621 19.186991L365.510136 390.415107c15.9646-20.798698 33.577746-47.180556 52.764738-79.146595C429.443237 296.877757 441.435363 293.656389 454.25125 301.675016zM483.031736 618.260371l0-438.903192-40.772612 0c-14.390755 0-23.196305-7.194866-26.381857-21.585621 1.573845-14.390755 9.593496-21.585621 23.984251-21.585621l350.163101 0c12.779048 0 19.974937 7.194866 21.585621 21.585621-1.610684 14.390755-8.80555 21.585621-21.585621 21.585621l-38.373982 0L751.650637 623.057631c0 30.354332-15.214517 45.568848-45.568848 45.568848L535.796474 668.626479C497.422492 671.812031 479.809345 655.022647 483.031736 618.260371zM706.080765 601.47201l0-95.934956L528.600585 505.537054l0 95.934956c-1.610684 15.9646 4.797259 23.159466 19.186991 21.585621l134.308939 0C699.672822 624.631476 707.65461 617.43661 706.080765 601.47201zM706.080765 462.365812l0-115.121947L528.600585 347.243865l0 115.121947L706.080765 462.365812zM706.080765 304.072623l0-124.715443L528.600585 179.35718 528.600585 304.072623 706.080765 304.072623z"  horiz-adv-x="1024" />

    
    <glyph glyph-name="xinxi" unicode="&#58924;" d="M511.996418 832.073038c-247.447718 0-448.058712-175.538969-448.058712-392.054187 0-123.746372 65.657372-226.876194 168.029948-298.735825l0-205.355041 205.354018 112.020306 74.67577 0c247.471254 0 448.079178 175.515433 448.064852 392.07056C960.06127 656.53407 759.453347 832.073038 511.996418 832.073038L511.996418 832.073038zM287.953759 384.004093c-30.922267 0-55.996338 25.068955-55.996338 56.004525 0 30.940686 25.074072 56.029084 55.996338 56.029084 30.952966 0 56.023968-25.076118 56.023968-56.029084C343.977727 409.052582 318.882166 384.004093 287.953759 384.004093L287.953759 384.004093zM511.987209 384.004093c-30.952966 0-56.023968 25.068955-56.023968 56.023968 0 30.952966 25.071002 56.028061 56.023968 56.028061 30.953989 0 56.028061-25.075095 56.028061-56.028061C568.01527 409.073048 542.945291 384.004093 511.987209 384.004093L511.987209 384.004093zM736.050334 384.004093c-30.953989 0-56.029084 25.068955-56.029084 56.023968 0 30.952966 25.075095 56.028061 56.029084 56.028061 30.916127 0 55.991222-25.075095 55.991222-56.028061C792.041556 409.073048 766.966461 384.004093 736.050334 384.004093L736.050334 384.004093zM736.050334 384.004093"  horiz-adv-x="1024" />

    
    <glyph glyph-name="bianji" unicode="&#58919;" d="M978.427058 508.631532c-21.729907 0-39.477107-17.749246-39.559994-39.5866l0-462.350207c0-21.305235-17.342993-38.639019-38.660508-38.639019L118.057813-31.944294c-21.3564 0-38.73214 17.33276-38.73214 38.639019L79.325673 761.329834c0 21.331841 17.375739 38.685068 38.73214 38.685068l503.752152 0c21.772886 0 39.486316 17.72571 39.486316 39.512922 0 21.773909-17.712407 39.488363-39.486316 39.488363L112.852254 879.016187c-62.048171 0-112.526843-50.468438-112.526843-112.502283l0-765.054413c0-62.018495 50.479695-112.475677 112.526843-112.475677l792.538371 0c62.048171 0 112.526843 50.456159 112.526843 112.475677L1017.917468 469.265966C1017.803881 490.972337 1000.088404 508.631532 978.427058 508.631532zM316.564889 333.72906c-0.719384-0.980327-1.564635-2.296299-2.016937-3.962242l-50.948369-186.794313c-3.454682-12.674671 0.163729-26.454512 9.444093-35.96205l0.100284-0.100284c7.045463-6.840802 16.312524-10.608615 26.094308-10.608615 3.357468 0 6.630001 0.425695 9.733689 1.2689l183.954639 50.169633c0.26299-0.037862 0.529049-0.057305 0.798179-0.057305 3.64911 0 7.05365 1.418302 9.55461 3.962242l495.996514 495.918743c15.705704 15.734356 24.354688 37.20332 24.354688 60.45386 0 26.194592-11.095709 52.30118-30.435173 71.619154l-46.851051 46.923706c-19.34765 19.374256-45.460378 30.486338-71.644737 30.486338-23.221888 0-44.706201-8.639774-60.510142-24.340361L318.355675 336.684368C317.28018 335.672318 316.804343 334.525192 316.564889 333.72906zM870.183775 776.598586c2.296299 2.310625 5.756097 3.582595 9.742898 3.582595 5.198395 0 10.477632-2.180666 14.122649-5.835915l46.851051-46.923706c3.903913-3.90596 6.142907-9.025561 6.142907-14.047947 0-3.855818-1.342578-7.320733-3.777023-9.755178l-45.51052-45.463448-72.450079 73.587995L870.183775 776.598586zM767.341502 673.75529l72.454172-73.634044L490.059292 250.364397l-73.086575 72.997548L767.341502 673.75529zM372.838543 262.999159l56.08025-56.07718L351.825974 185.812195 372.838543 262.999159z"  horiz-adv-x="1040" />

    
    <glyph glyph-name="bianji1" unicode="&#58920;" d="M343.79477 219.300715l217.370328 61.722014L405.901012 435.31816 343.79477 219.300715 343.79477 219.300715zM924.35562 641.986757 769.086478 796.291287 427.501644 456.830824l155.264087-154.300486 341.584833 339.456418L924.35562 641.986757zM879.104808 70.555341c0-53.635048-43.474268-97.108305-97.108305-97.108305L199.271849-26.552964c-53.640104 0-97.128528 43.473257-97.128528 97.108305L102.143321 653.277973c0 53.635048 43.482357 97.123472 97.128528 97.123472L587.745514 750.401445l97.128528 97.118416L166.895673 847.519862c-89.392421 0-161.865713-72.473291-161.865713-161.860657l0-647.474984c0-89.392421 72.478347-161.860657 161.865713-161.860657l647.466895 0c89.396466 0 161.875824 72.468236 161.875824 161.860657L976.238391 556.156524l-97.133583-97.123472L879.104808 70.555341l0.005056 0L879.104808 70.555341zM996.507374 771.607739 899.472881 868.043647c-16.080909 15.978785-43.020273 15.116297-60.172973-1.924168l-46.577406-46.29328 155.264087-154.294419 46.581451 46.289236C1011.72175 728.855414 1012.588283 755.63401 996.507374 771.607739L996.507374 771.607739 996.507374 771.607739zM996.507374 771.607739"  horiz-adv-x="1024" />

    
    <glyph glyph-name="fanhui1" unicode="&#58900;" d="M622.650611 611.098251 447.745069 611.098251 447.745069 753.176131 63.980685 561.294962l383.76336-191.882192L447.744046 511.165238l189.391465 0c149.914358 0 224.855164-62.789045 224.855164-188.368158 0-129.928165-77.435627-194.876386-232.338602-194.876386L187.952184 127.920694l0-99.93199L634.146433 27.988704c211.184817 0 316.777737 95.104031 316.777737 285.311071C950.924169 511.821177 841.510224 611.098251 622.650611 611.098251z"  horiz-adv-x="1024" />

    
    <glyph glyph-name="sousuo" unicode="&#59141;" d="M455.494979 90.930807c-194.888903 0-353.441893 158.552792-353.441893 353.434928 0 194.881113 158.55299 353.433905 353.441893 353.433905S808.944036 639.246848 808.944036 444.365735C808.944036 249.484622 650.383882 90.930807 455.494979 90.930807M455.494979 710.805484c-146.920627 0-266.44426-119.526018-266.44426-266.439749 0-146.914754 119.523633-266.440772 266.44426-266.440772s266.4504 119.526018 266.4504 266.440772C721.945379 591.279466 602.415606 710.805484 455.494979 710.805484M868.304189-21.954991c-13.70566 0-27.402111 5.228061-37.85865 15.678043L645.790086 178.363961c-20.905916 20.906104-20.905916 54.804077 0 75.714274 20.914103 20.899964 54.806268 20.899964 75.718324 0l184.654429-184.640908c20.90694-20.906104 20.90694-54.804077 0-75.714274C895.705277-16.72693 882.008826-21.954991 868.304189-21.954991"  horiz-adv-x="1024" />

    
    <glyph glyph-name="xiajiantouquan01" unicode="&#58885;" d="M512 893.321c280.844 0 509.319-228.475 509.319-509.319s-228.475-509.319-509.319-509.319-509.319 228.475-509.319 509.319 228.475 509.319 509.319 509.319zM512-65.402c247.813 0 449.402 201.589 449.402 449.402s-201.589 449.402-449.402 449.402-449.402-201.589-449.402-449.402 201.589-449.402 449.402-449.402zM292.231 296.43c11.366-11.35 30.5-11.864 42-0.381l191.113 191.113 191.113-191.113c11.146-11.146 30.28-11.323 41.984 0.381 11.35 11.366 11.864 30.5 0.381 41.984l-212.617 212.617c-5.324 5.324-12.481 7.956-19.762 8.192-0.338 0.016-0.643 0.177-0.981 0.177-0.305 0-0.617-0.145-0.922-0.161-7.313-0.134-14.583-2.707-20.073-8.208l-212.617-212.617c-11.146-11.146-11.307-30.28 0.381-41.984z"  horiz-adv-x="1024" />

    
    <glyph glyph-name="xiajiantouquan011" unicode="&#58886;" d="M512 893.321c280.844 0 509.319-228.475 509.319-509.319s-228.475-509.319-509.319-509.319-509.319 228.475-509.319 509.319 228.475 509.319 509.319 509.319zM512-65.402c247.813 0 449.402 201.589 449.402 449.402s-201.589 449.402-449.402 449.402-449.402-201.589-449.402-449.402 201.589-449.402 449.402-449.402zM292.231 296.43c11.366-11.35 30.5-11.864 42-0.381l191.113 191.113 191.113-191.113c11.146-11.146 30.28-11.323 41.984 0.381 11.35 11.366 11.864 30.5 0.381 41.984l-212.617 212.617c-5.324 5.324-12.481 7.956-19.762 8.192-0.338 0.016-0.643 0.177-0.981 0.177-0.305 0-0.617-0.145-0.922-0.161-7.313-0.134-14.583-2.707-20.073-8.208l-212.617-212.617c-11.146-11.146-11.307-30.28 0.381-41.984z"  horiz-adv-x="1024" />

    
    <glyph glyph-name="weidu" unicode="&#58891;" d="M1168.571 881.465c0 91.495-73.59 166.399-165.085 166.399l-1159.373 0.493 1325.607-1325.607-1.148 1158.717zM812.611 669.729c10.018-1.972 19.054-2.956 27.104-2.956-0.658-23.325-2.627-44.679-6.078-64.063-8.705 1.972-18.070 3.284-28.090 3.942 5.421 22.668 7.721 43.694 7.063 63.077zM573.115 623.571c1.313-27.433 11.334-57.821 30.060-91.168-12.647 4.764-25.79 3.616-39.097-2.956-11.334 24.639-18.234 51.578-20.532 80.654-2.299 29.074 1.807 62.256 12.485 99.708l-70.141-70.141c-12.65-12.65-23.981-24.639-34.002-36.138l-22.996 22.996c11.993 9.363 24.31 20.368 37.123 33.018l73.097 73.097c-42.052-10.020-77.533-13.963-106.278-11.993s-53.056 4.929-73.097 9.034c3.284 8.705 3.284 20.698 0 36.138 15.277-7.392 39.26-12.485 71.618-15.605 32.359-2.956 65.87-0.493 100.693 7.556l-50.1 50.1c-14.62 14.62-26.447 25.627-34.989 33.018l18.070 18.070c9.363-10.679 21.026-22.996 34.989-37.123l64.063-64.063 40.080 40.080-42.052 42.052c-16.097 16.097-29.403 28.746-40.080 38.109l18.070 18.070c9.363-10.679 21.355-23.325 36.138-38.109l44.021-44.021c20.041 20.041 34.002 34.66 42.052 44.021l22.012-22.012c-8.705-7.392-23.325-21.355-44.021-42.052l44.021-44.021c12.65-12.65 24.969-24.31 37.123-34.989l-18.070-18.070c-10.676 11.993-22.339 24.31-34.989 37.123l-44.021 44.021-40.245-40.080 59.134-59.134c14.62-14.62 28.746-28.090 42.052-40.080l-18.070-18.070c-11.993 13.306-24.969 27.104-39.097 41.066l-48.13 48.13c-5.911-30.060-8.211-58.806-6.898-86.238zM630.277 443.208c1.972 8.705 1.972 18.725 0 30.060 10.679-1.313 19.712 0.329 27.104 4.929l98.231 98.231c-8.050 8.050-19.054 18.398-33.018 31.045l18.070 18.070c11.334-12.647 22.012-23.981 32.032-34.002l18.070-18.070c-11.993-10.679-24.639-22.668-38.109-36.138l-66.198-66.198c11.334 0.658 23.653 1.643 37.123 2.956-3.284-7.392-5.749-16.425-7.063-27.104-18.725 0-35.152-0.329-49.115-0.986-14.128-0.329-26.447-1.313-37.123-2.793zM805.548 440.252c-8.050-1.313-17.084-2.956-27.104-4.929-4.601 28.746-9.034 49.115-12.977 61.106 8.050 1.313 15.934 3.284 23.981 6.078 6.735-24.147 12.156-44.844 16.097-62.256zM796.513 254.964c-0.658 23.325-5.257 52.071-13.963 86.238 10.676 1.313 19.383 3.284 26.117 6.078 8.705-40.738 14.29-70.469 17.084-89.195-9.527-0.164-19.219-1.148-29.238-3.121zM850.555 357.135c11.993-11.993 25.955-25.297 42.052-40.080l-18.070-18.070c-11.993 13.306-24.969 27.104-39.097 41.066l-28.090 28.090c-18.725-8.050-36.467-11.663-53.056-11.007-16.755 0.658-32.359 3.284-47.143 8.050-14.62 4.601-27.104 9.363-37.123 13.963 1.313 9.363 2.299 19.054 2.956 29.074 20.698-13.963 41.887-22.503 63.57-25.627 21.682-2.956 38.931-1.478 51.578 4.435l-24.969 24.969c-12.65 12.65-26.447 25.627-41.066 39.097l18.070 18.070c11.334-12.65 24.31-26.447 39.092-41.066l30.060-30.060c11.993 9.363 24.639 19.712 38.109 31.045 13.306 11.334 24.639 21.682 34.002 31.045 3.942-8.050 9.691-16.428 17.084-24.969-9.363-5.421-20.207-13.141-32.525-23.489-12.32-10.348-25.627-20.532-39.588-30.551l24.147-23.981zM812.611 507.437c8.705 1.972 16.755 3.942 23.981 6.078 5.911-28.746 10.676-50.1 13.963-64.063-8.050-1.313-17.084-2.956-27.104-4.929-1.807 24.475-5.585 45.5-10.842 62.913zM991.823 436.309c-10.020 11.334-29.731 31.705-59.134 61.106l-20.861-21.026 68.171-68.169c-32.032-13.306-54.044-22.668-66.198-28.090-2.627 6.735-6.078 14.62-10.018 23.981 15.934 6.735 27.76 11.663 34.989 14.948l-83.117 83.117c-13.963 13.963-28.417 27.76-43.037 41.066l17.084 17.084c13.306-14.62 34.66-36.795 64.063-66.198l21.026 21.026c-23.981 23.981-43.365 42.707-58.149 56.178l17.084 17.084c8.050-9.363 26.775-28.746 56.178-58.149 9.363 9.363 18.070 18.725 26.117 28.090l20.041-20.041c-11.334-10.018-20.698-18.725-28.090-26.117 28.090-28.090 48.459-47.802 61.106-59.134l-17.247-16.755z"  horiz-adv-x="1024" />

    
    <glyph glyph-name="gongzuoliu" unicode="&#59031;" d="M307.2 640a102.4 102.4 0 1 1 0 204.8 102.4 102.4 0 0 1 0-204.8z m563.2-51.2h-204.8a51.2 51.2 0 0 1-51.2-51.2v-51.2h-102.4a102.4 102.4 0 0 1-102.4 102.4H204.8a102.4 102.4 0 0 1-102.4-102.4v-102.4a102.4 102.4 0 0 1 102.4-102.4h51.2v-153.6a102.4 102.4 0 0 1 102.4-102.4h256v-51.2a51.2 51.2 0 0 1 51.2-51.2h204.8a51.2 51.2 0 0 1 51.2 51.2v204.8a51.2 51.2 0 0 1-51.2 51.2h-204.8a51.2 51.2 0 0 1-51.2-51.2v-51.2H409.6a51.2 51.2 0 0 0-51.2 51.2v102.4h51.2a102.4 102.4 0 0 1 102.4 102.4h102.4v-51.2a51.2 51.2 0 0 1 51.2-51.2h204.8a51.2 51.2 0 0 1 51.2 51.2V537.6a51.2 51.2 0 0 1-51.2 51.2z"  horiz-adv-x="1024" />

    
    <glyph glyph-name="jian" unicode="&#58988;" d="M737.792 414.72H289.792c-17.92 0-32.256-14.336-32.256-32.256s14.336-32.256 32.256-32.256h448c17.92 0 32.256 14.336 32.256 31.744s-14.336 32.768-32.256 32.768zM830.464 698.368c-84.48 83.968-197.12 130.56-316.928 130.56-119.296 0-231.936-46.592-316.416-130.56C112.64 613.888 66.048 502.272 66.048 382.976c0-119.296 46.592-231.424 131.072-315.392s197.12-130.56 316.928-130.56 231.936 46.592 316.928 130.56c84.48 83.968 131.072 196.096 131.072 315.392-0.512 119.296-47.104 230.912-131.584 315.392zM785.408 112.64c-72.704-72.192-168.96-112.128-271.36-112.128s-199.168 39.936-271.36 112.128c-72.704 72.192-112.64 167.936-112.64 269.824s39.936 198.144 112.64 270.336c72.704 72.192 168.96 112.128 271.36 112.128s199.168-39.936 271.36-112.128c72.704-72.192 112.128-167.936 112.128-269.824 0-101.888-39.936-198.144-112.128-270.336z"  horiz-adv-x="1024" />

    
    <glyph glyph-name="mianji" unicode="&#58918;" d="M951.424 404.893L521.452 755.16 91.495 404.893l-37.15 40.868L490.198 800.807c18.19 14.834 44.322 14.834 62.525 0l434.142-353.665-35.442-42.25zM866.277-32.924H176.641c-19.528 0-35.357 15.83-35.357 35.357V489.225c0 19.527 15.828 35.357 35.357 35.357 19.53 0 21.215-1.686 21.215-21.214v-479.72h647.208V489.226c0 19.527 1.67 35.357 21.213 35.357 19.515 0 35.359-15.829 35.359-35.357v-486.792c0-19.527-15.842-35.357-35.359-35.357z m-85.727 770.53h-55.824c-3.688 0-6.672-5.871-6.672-13.122v-67.274c0-3.95 0.925-7.678 2.458-10.178l51.915-83.228c1.188-1.905 2.68-2.94 4.214-2.94h3.906c3.689 0 6.658 5.881 6.658 13.118V724.485c0.005 7.25-2.965 13.12-6.654 13.12zM645.188 152.451h-64.994V279.806c0 34.17-12.446 51.28-37.333 51.28-11.585 0-21.202-5.192-28.864-15.565-7.668-10.346-11.505-23.01-11.505-37.926V152.45h-64.997V281.435c0 33.106-12.306 49.652-36.946 49.652-12.238 0-22.016-4.96-29.35-14.85-7.347-9.902-11.007-22.98-11.007-39.248v-124.537h-65.19V375.67h65.19v-34.903h0.815c7.789 12.776 18.161 22.708 31.09 29.78 12.897 7.045 26.49 10.579 40.77 10.579 31.339 0 52.8-14.058 64.388-42.18 17.223 28.12 42.249 42.18 75.063 42.18 48.588 0 72.869-29.997 72.869-90.005v-138.67z m123.196 158.277h-96.5v24.269l42.512 40.797c8.948 8.537 15.177 15.703 18.74 21.49 3.578 5.799 5.347 11.835 5.347 18.078 0 14.074-7.555 21.118-22.637 21.118-12.678 0-24.943-5.11-36.79-15.287v27.428c12.69 8.411 27.069 12.609 43.186 12.609 14.585 0 26.159-3.715 34.694-11.147 8.519-7.416 12.803-17.692 12.803-30.813 0-17.331-10.524-35.479-31.532-54.485l-30.869-27.8v-0.569h61.047l-0.001-25.688z"  horiz-adv-x="1024" />

    
    <glyph glyph-name="tuichu" unicode="&#59119;" d="M960.5 384.2c0 9.2-3.5 18.5-10.5 25.5-0.5 0.5-1 1-1.5 1.4L726.6 633c-14 14-36.9 14-50.9 0s-14-36.9 0-50.9l162.4-162.4H290.5c-19.8 0-36-16.2-36-36s16.2-36 36-36h546.6L675.7 186.4c-14-14-14-36.9 0-50.9s36.9-14 50.9 0l219.8 219.8c8.6 6.6 14.1 16.9 14.1 28.5v0.2 0.2zM476 8H136V760h340c19.8 0 36 16.2 36 36s-16.2 36-36 36H104.2c-1.4 0.2-2.8 0.2-4.2 0.2-19.8 0-36-16.2-36-36V-28c0-19.8 16.2-36 36-36h376c19.8 0 36 16.2 36 36s-16.2 36-36 36z"  horiz-adv-x="1024" />

    
    <glyph glyph-name="arrow-left-copy" unicode="&#58880;" d="M694.475 63.547000000000025l-56.285-58.26-393.996 392.021 393.996 392.021 56.285-58.26-331.786-333.761z"  horiz-adv-x="1024" />

    
    <glyph glyph-name="zhuijia" unicode="&#58892;" d="M893.594 470.93c-16.382 0-29.665-13.282-29.665-29.668v-360.374c0-20.716-16.856-37.57-37.573-37.57h-628.08c-20.718 0-37.573 16.854-37.573 37.57V684.09c0 20.715 16.853 37.569 37.573 37.569h115.66c3.086 0 6.064 0.47 8.862 1.348h203.761c16.38 0 29.664 13.283 29.664 29.665 0 16.383-13.282 29.664-29.664 29.664H198.276c-53.43 0-96.9-43.47-96.9-96.9V79.54c0-53.43 43.47-96.9 96.9-96.9h306.797c3.085 0 6.062 0.476 8.86 1.35h312.428c53.43 0 96.902 43.463 96.902 96.9V441.26c-0.005 16.387-13.281 29.668-29.67 29.668m0 0z m-354.43 129.982c0.009-16.377 13.287-29.65 29.663-29.65h0.014l121.258 0.047 0.046-121.257c0.008-16.377 13.289-29.654 29.665-29.654h0.014c16.382 0.01 29.66 13.296 29.65 29.679l-0.046 121.257 121.256 0.046c16.382 0.009 29.66 13.29 29.654 29.678-0.01 16.377-13.292 29.65-29.669 29.65h-0.01l-121.256-0.047-0.052 121.256c-0.006 16.378-13.289 29.656-29.664 29.656h-0.015c-16.382-0.01-29.66-13.297-29.65-29.678l0.046-121.257-121.251-0.047c-16.386-0.01-29.664-13.293-29.652-29.68m0 0z"  horiz-adv-x="1024" />

    
    <glyph glyph-name="icon" unicode="&#58947;" d="M512.133 271.01800000000003l-292.16 292.15500001c-12.27 12.28-32.186 12.28-44.45700001-1e-8-12.28099999-12.27-12.281-32.186 0-44.457l314.38800001-314.388c12.27-12.28 32.186-12.28 44.45699999 0l314.38700002 314.388c6.14 6.136 9.211 14.183 9.21099999 22.228s-3.071 16.092-9.211 22.228c-12.27 12.28-32.186 12.28-44.457 0l-292.159-292.15499999z"  horiz-adv-x="1024" />

    
    <glyph glyph-name="arrow-right" unicode="&#58887;" d="M329.525 722.58633333l56.285 58.261 393.996-392.021-393.996-392.021-56.285 58.261 331.786 333.761z"  horiz-adv-x="1024" />

    
    <glyph glyph-name="rili" unicode="&#58957;" d="M302.671726 720.164571H226.968869v-39.131428c0-21.577143 17.042286-39.058286 37.888-39.058286 20.918857 0 37.814857 17.554286 37.814857 39.058286v39.131428z m491.812571 0v-39.131428c0-21.577143 16.896-39.058286 37.814857-39.058286 20.845714 0 37.814857 17.554286 37.814857 39.058286V798.281143H226.968869v-78.116572h567.515428zM264.783726 192.950857a38.546286 38.546286 0 0 1-37.888-39.058286c0-21.504 17.042286-38.985143 37.888-38.985142h378.441143c20.845714 0 37.814857 17.481143 37.814857 38.985142a38.546286 38.546286 0 0 1-37.814857 39.058286H264.783726z m567.588571 117.174857c20.845714 0 37.814857 17.554286 37.814857 39.058286a38.473143 38.473143 0 0 1-37.814857 39.131429h-567.588571a38.546286 38.546286 0 0 1-37.888-39.131429c0-21.504 17.042286-39.058286 37.888-39.058286h567.588571zM75.636297 524.873143h945.810286V602.989714H75.70944v-78.116571z m151.405714 273.408h75.629715V857.014857A38.473143 38.473143 0 0 1 264.856869 896a38.473143 38.473143 0 0 1-37.888-38.985143v-58.733714z m-170.130285 0A57.782857 57.782857 0 0 1 0.006583 739.620571v-800.548571c0-32.329143 25.526857-58.660571 56.905143-58.660571h983.405714c31.451429 0 56.832 26.185143 56.832 58.660571V739.620571a57.929143 57.929143 0 0 1-56.832 58.660572h-170.203429V857.014857A38.473143 38.473143 0 0 1 832.299154 896a38.473143 38.473143 0 0 1-37.814857-38.985143v-136.850286h245.76a19.163429 19.163429 0 0 0-18.797714 19.456v-800.548571c0 10.825143 8.411429 19.529143 18.870857 19.529143H56.911726a19.017143 19.017143 0 0 0 18.724571-19.529143V739.620571a19.163429 19.163429 0 0 0-18.724571-19.456h170.057143V798.281143H56.911726z"  horiz-adv-x="1097" />

    
    <glyph glyph-name="wenjian" unicode="&#58960;" d="M752 816H272c-70.4 0-128-57.6-128-128v-608c0-70.4 57.6-128 128-128h353.6c33.6 0 65.6 12.8 91.2 36.8l126.4 126.4c24 24 36.8 56 36.8 91.2V688c0 70.4-57.6 128-128 128zM208 80V688c0 35.2 28.8 64 64 64h480c35.2 0 64-28.8 64-64v-464h-96c-70.4 0-128-57.6-128-128v-80H272c-35.2 0-64 28.8-64 64z m462.4-44.8c-4.8-4.8-9.6-8-14.4-11.2V96c0 35.2 28.8 64 64 64h75.2l-124.8-124.8zM368 544h288c17.6 0 32 14.4 32 32s-14.4 32-32 32H368c-17.6 0-32-14.4-32-32s14.4-32 32-32zM496 288h-128c-17.6 0-32-14.4-32-32s14.4-32 32-32h128c17.6 0 32 14.4 32 32s-14.4 32-32 32zM368 384h288c17.6 0 32 14.4 32 32s-14.4 32-32 32H368c-17.6 0-32-14.4-32-32s14.4-32 32-32z"  horiz-adv-x="1024" />

    
    <glyph glyph-name="ren" unicode="&#58888;" d="M737.634 588.645c0-124.9-100.843-225.743-225.742-225.743S286.149 463.745 286.149 588.645 386.991 814.387 511.892 814.387s225.742-100.842 225.742-225.742zM798.012-0.47h-592.28c-26.11 0-37.258 19.17-37.258 46.064v-0.409c0 155.563 113.144 277.719 264.177 277.719h139.262c151.032 0 283.395-123.472 283.395-279.035v2.179c0.001-26.895-31.185-46.517-57.296-46.517z"  horiz-adv-x="1024" />

    
    <glyph glyph-name="bianji2" unicode="&#58926;" d="M981.333333 460.8c-25.6 0-42.666667-17.066667-42.666666-42.666667V0c0-25.6-17.066667-42.666667-42.666667-42.666667H128c-25.6 0-42.666667 17.066667-42.666667 42.666667V768c0 25.6 17.066667 42.666667 42.666667 42.666667h396.8c25.6 0 42.666667 17.066667 42.666667 42.666666s-17.066667 42.666667-42.666667 42.666667H128c-72.533333 0-128-55.466667-128-128v-768c0-72.533333 55.466667-128 128-128h768c72.533333 0 128 55.466667 128 128v418.133333c0 25.6-17.066667 42.666667-42.666667 42.666667zM315.733333 401.066667l-25.6-25.6v-4.266667l-76.8-213.333333c-8.533333-25.6-4.266667-51.2 17.066667-68.266667 12.8-12.8 29.866667-17.066667 46.933333-17.066667 8.533333 0 12.8 0 21.333334 4.266667l213.333333 76.8 25.6 25.6 29.866667 29.866667 388.266666 388.266666 21.333334 21.333334c42.666667 42.666667 42.666667 115.2 0 157.866666l-64 64c-42.666667 42.666667-115.2 42.666667-157.866667 0l-81.066667-81.066666-358.4-358.4zM307.2 170.666667l46.933333 136.533333 85.333334-85.333333L307.2 170.666667z m507.733333 610.133333c8.533333 8.533333 25.6 8.533333 38.4 0l64-64c8.533333-8.533333 8.533333-25.6 0-38.4l-21.333333-17.066667-102.4 102.4 21.333333 17.066667z m21.333334-183.466667l-328.533334-328.533333-102.4 102.4 328.533334 328.533333 102.4-102.4z"  horiz-adv-x="1024" />

    
    <glyph glyph-name="shanchu" unicode="&#58881;" d="M512 475.01573193L178.42584077 808.66498544a64.3568326 64.3568326 0 1 1-91.01572999-91.0157319L420.90917376 384l-333.64925543-333.57415923a64.3568326 64.3568326 0 1 1 91.01573193-91.01572999L512 292.90917376000004l333.57415923-333.64925543a64.3568326 64.3568326 0 1 1 91.01572999 91.01573193L603.09082624 384l333.64925543 333.57415923a64.3568326 64.3568326 0 1 1-91.01573193 91.01572999L512 475.09082624z"  horiz-adv-x="1024" />

    
    <glyph glyph-name="tongzhi" unicode="&#58965;" d="M888.421 112.466c-3.127 72.626-39.365 137.069-93.945 178.582V488.136c0 113.84-81.439 209.602-189.058 232.229v4.507c0 51.929-42.589 94.417-94.642 94.417s-94.642-42.488-94.642-94.417v-4.507c-107.619-22.627-189.057-118.389-189.057-232.229v-197.088c-54.581-41.513-90.821-105.954-93.946-178.582h93.946v-0.635h567.4v0.635h93.945zM490.808-58.762h23.494c61.58 0 112.779 46.449 120.222 105.956H387.292c7.444-59.507 58.642-105.956 120.223-105.956h-16.707z"  horiz-adv-x="1024" />

    
    <glyph glyph-name="bianji3" unicode="&#58930;" d="M846.976-74.624H174.72c-67.456 0-122.24 54.784-122.24 122.24V720C52.48 787.456 107.264 842.24 174.72 842.24h443.136c8.448 0 15.232-6.784 15.232-15.232v-30.592c0-8.448-6.912-15.232-15.232-15.232H205.312c-50.688 0-91.648-41.088-91.648-91.648v-611.2c0-50.688 41.088-91.648 91.648-91.648h611.2c50.688 0 91.648 41.088 91.648 91.648V490.752c0 8.448 6.912 15.232 15.232 15.232h30.592c8.448 0 15.232-6.912 15.232-15.232v-443.136c0.128-67.456-54.656-122.24-122.24-122.24z m53.888 727.552l-126.976 119.936L812.416 811.52c29.824 29.952 78.848 30.72 109.568 1.792l15.872-14.976c30.72-28.928 31.36-76.8 1.536-106.624l-38.528-38.784zM295.808 292.608l126.976-119.936-186.88-64 59.904 183.936z m574.208 329.344L453.632 203.776l-126.976 119.936 416.512 418.176 126.848-119.936z m0 0"  horiz-adv-x="1024" />

    
    <glyph glyph-name="peizhi" unicode="&#59022;" d="M0 725.796571v-55.954285c0-16.896 15.36-31.012571 33.792-31.012572H384V756.297143H33.792C15.36 756.809143 0 742.692571 0 725.796571z m1024-370.029714V411.794286c0 16.969143-15.36 31.085714-33.792 31.085714H469.577143v-117.540571h520.777143c18.358857 0 33.718857 13.604571 33.718857 30.500571z m0 314.075429v55.954285c0 16.896-15.36 31.012571-33.792 31.012572H682.496V639.268571h307.712c18.432 0 33.792 13.677714 33.792 30.573715z m0-627.565715v55.881143c0 16.969143-15.36 31.012571-33.792 31.012572h-179.712v-117.540572h179.712c18.432-0.438857 33.792 13.165714 33.792 30.573715z m-256-70.070857V168.228571c0 21.577143-18.944 38.985143-42.422857 38.985143H597.577143c-23.625143 0-42.569143-17.408-42.569143-38.985143v-196.022857c0-21.650286 19.017143-39.058286 42.496-39.058285h128c23.552-0.438857 42.496 17.408 42.496 39.058285zM0 98.157714v-55.954285c0-16.896 15.36-31.012571 33.792-31.012572H512V128.731429H33.792c-18.432 0-33.792-13.604571-33.792-30.573715z m426.496 187.611429V482.230857c0 21.650286-18.944 39.058286-42.422857 39.058286H256c-23.625143 0-42.569143-17.408-42.569143-39.058286v-196.022857c0-21.650286 19.017143-38.985143 42.496-38.985143h128c23.552-0.512 42.496 16.896 42.496 38.546286zM0.073143 412.233143v-55.954286c0-16.969143 15.36-31.012571 33.718857-31.012571h137.216V442.806857H33.792c-18.432 0-33.792-13.677714-33.792-30.573714zM640 599.771429V795.794286c0 21.650286-19.017143 39.058286-42.569143 39.058285H469.577143c-23.552 0-42.422857-17.408-42.422857-38.985142v-196.022858c0-21.650286 18.870857-39.058286 42.422857-39.058285h128c23.552 0 42.496 17.408 42.496 38.985143z"  horiz-adv-x="1024" />

    
    <glyph glyph-name="bianji4" unicode="&#59142;" d="M319.184 328.76c-0.665-0.886-1.329-1.8-1.633-2.907l-51.532-195.307c-2.99-11.375 0.083-23.635 8.22-32.27 6.088-6.144 14.114-9.52 22.666-9.52 2.823 0 5.645 0.332 8.413 1.107l187.558 52.888c0.305 0 0.443-0.277 0.664-0.277 2.159 0 4.29 0.803 5.868 2.519l501.538 518.448c14.89 15.416 23.054 36.421 23.054 59.282 0 25.904-10.627 51.78-29.226 70.988l-47.353 49.041c-18.598 19.235-43.672 30.25-68.69 30.25-22.113 0-42.427-8.442-57.372-23.83L319.93 330.559c-0.526-0.498-0.388-1.217-0.747-1.799M951.85 714.226l-49.817-51.477-80.73 84.826L870.4 798.333c7.75 8.08 22.805 6.89 31.716-2.353l47.409-49.041c4.926-5.12 7.749-11.9 7.749-18.626-0.028-5.507-1.91-10.517-5.424-14.087M408.355 320.623l361.887 374.175 80.813-84.881L489.832 236.46l-81.477 84.162zM342.43 168.905l26.154 99.245 69.77-72.123-95.924-27.122z m641.19 339.857c-18.985 0-34.54-15.969-34.622-35.868V-10.46c0-25.351-19.899-45.942-44.447-45.942h-790.86c-24.521 0-44.503 20.59-44.503 45.942v788.95c0 25.379 19.982 45.97 44.503 45.97h509.343c19.096 0 34.594 16.051 34.594 35.784C657.63 879.948 642.131 896 623.035 896h-514.63C48.655 896 0 845.741 0 783.914v-799.855C0-77.77 48.654-128 108.406-128h801.376c59.808 0 108.406 50.231 108.406 112.059V473.143c-0.055 19.65-15.581 35.619-34.567 35.619"  horiz-adv-x="1024" />

    
    <glyph glyph-name="zhanghao" unicode="&#58889;" d="M964.608 535.04H630.272s30.72 74.24 0 130.56h338.944s105.472-68.608-4.608-130.56z m6.656-231.936H545.792l66.048 130.56 359.424 1.024c96.768-72.192 0-131.584 0-131.584zM588.8 197.12s116.736-26.112 153.088-77.824v-114.688H5.12v102.4s19.456 63.488 168.448 90.112c93.696 16.896 112.64 58.368 106.496 115.712-2.048 16.896-106.496 108.032-88.064 317.44 0 0 17.408 128.512 146.432 134.144h85.504s117.76-13.312 142.848-136.192c0 0 6.656-207.36-94.72-314.368 0 0.512-5.632-82.944 116.736-116.736z m379.392 6.656c112.128-76.8 2.048-133.12 2.048-133.12H804.352v48.64c5.632 51.712-28.672 82.432-28.672 82.432l192.512 2.048z"  horiz-adv-x="1024" />

    
    <glyph glyph-name="xiaoshouchuku" unicode="&#59055;" d="M647.5 100.2S719 225.4 862.2 227.3v-109.7l156.5 156.5-156.5 156.4v-112c-23.1 0.2-46.5-1.3-63.9-6.2-63.6-17.9-150.8-86.4-150.8-212.1zM329.9 200.8h-58.7c-10.8 0-19.6-8.8-19.6-19.6v-58.7c0-10.8 8.8-19.6 19.6-19.6h58.7c10.8 0 19.6 8.8 19.6 19.6v58.7c0 10.8-8.8 19.6-19.6 19.6zM349.5 318.3c0 10.8-8.8 19.6-19.6 19.6h-58.7c-10.8 0-19.6-8.8-19.6-19.6v-58.7c0-10.8 8.8-19.6 19.6-19.6h58.7c10.8 0 19.6 8.8 19.6 19.6v58.7zM349.5 455.4c0 10.8-8.8 19.6-19.6 19.6h-58.7c-10.8 0-19.6-8.8-19.6-19.6v-58.7c0-10.8 8.8-19.6 19.6-19.6h58.7c10.8 0 19.6 8.8 19.6 19.6v58.7zM486.6 200.8h-58.7c-10.8 0-19.6-8.8-19.6-19.6v-58.7c0-10.8 8.8-19.6 19.6-19.6h58.7c10.8 0 19.6 8.8 19.6 19.6v58.7c0 10.8-8.9 19.6-19.6 19.6zM506.2 318.3c0 10.8-8.8 19.6-19.6 19.6h-58.7c-10.8 0-19.6-8.8-19.6-19.6v-58.7c0-10.8 8.8-19.6 19.6-19.6h58.7c10.8 0 19.6 8.8 19.6 19.6v58.7zM506.2 455.4c0 10.8-8.8 19.6-19.6 19.6h-58.7c-10.8 0-19.6-8.8-19.6-19.6v-58.7c0-10.8 8.8-19.6 19.6-19.6h58.7c10.8 0 19.6 8.8 19.6 19.6v58.7zM804.1 156.2c-17.4 0-31.5-14.1-31.5-31.5v-76.3H196.4c-3.4 0-5.4 1.8-5.7 1.3V509.1L470 715.8c7 5.2 16.3 5.2 23.3 0l279.3-206.7V390c0-17.4 14.1-31.5 31.5-31.5s31.5 14.1 31.5 31.5v72.4l32.9-24.4c5.6-4.2 12.2-6.2 18.7-6.2 9.6 0 19.2 4.4 25.3 12.8 10.4 14 7.4 33.7-6.6 44.1l-77.6 57.4c-3.3 4-7.5 7.2-12.4 9.2L530.8 766.4c-29.4 21.8-68.9 21.8-98.3 0L147.2 555.3c-4.9-2-9.1-5.2-12.4-9.2l-77.6-57.4c-14-10.4-16.9-30.1-6.6-44.1s30.1-16.9 44.1-6.6l32.9 24.4v-413.3c0.6-35.8 32.3-64.7 69.4-63.8h607c17.4 0 31.5 14.1 31.5 31.5 0 2.4-0.3 4.6-0.8 6.8 0.5 2.2 0.8 4.5 0.8 6.8v94.1c0.1 17.6-14 31.7-31.4 31.7z"  horiz-adv-x="1024" />

    
    <glyph glyph-name="form-1" unicode="&#58882;" d="M717.6 666.8c-6.4 0-12 2.4-16.8 6.8-4.4 4.4-8.4 9.6-11.2 15.6-2.8 6-5.2 12-6.8 18.4s-2.4 11.6-2.4 15.6V834h1.6c5.2 0 10.4-0.4 15.2-1.6 4.8-1.2 10.8-4 17.6-8.4 6.8-4.4 15.2-10.8 25.2-18.8s22.4-18.8 37.2-32c16-14.4 29.2-26.4 38.8-36.4s16.8-18.4 22-25.2 8.4-12.8 9.6-17.6c1.2-4.8 1.6-8.8 1.6-12.4v-14.4l-131.6-0.4zM997.2 244c1.6-4.8 2.8-10.8 3.6-18 0.4-7.2-2.4-14-8.8-20.8-2.8-2.8-5.6-6-8-8.4-2.4-2.8-4.4-4.8-6.4-6.8-2.4-2.4-4.4-4-6.4-5.2L894.8 260c3.6 2.8 7.6 6.4 12 10.8s8.4 7.6 11.2 10c7.2 6.4 14.8 9.6 23.2 8.4 8.4-0.8 15.2-2.8 20.8-6 6-2.8 12.4-8.4 19.2-15.6s12.4-15.2 16-23.6zM680 160.39999999999998c13.2 0 24.4 3.6 33.2 10.8l-174.4-181.6h-248c-11.2 0-24 3.2-37.2 10-13.6 6.4-26 15.2-37.6 26-11.6 10.8-21.6 23.2-29.2 37.2-7.6 14-11.6 28.4-11.6 43.6V718c0 12.4 2.8 25.6 8.4 39.6 5.6 13.6 13.6 26 23.2 37.2s21.2 20.4 33.6 28c12.4 7.6 25.6 11.2 39.6 11.2h344v-112.4c0-11.2 1.6-23.6 5.2-36.8s9.2-25.2 16.8-36.4c7.6-11.2 17.2-20.4 29.2-28 12-7.6 26.4-11.2 43.2-11.2h131.2V312l-123.2-127.6c6.4 9.6 10 20 10 31.6 0 15.6-5.6 28.8-16.8 40s-24.4 16.8-40 16.8H343.2c-15.6 0-28.8-5.6-39.6-16.8-10.8-11.2-16-24.4-16-40s5.2-28.8 16-39.6 24-16 39.6-16H680zM343.2 497.2c-15.6 0-28.8-5.6-39.6-16.8-10.8-11.2-16-24.4-16-40s5.2-28.8 16-39.6 24-16 39.6-16H680c15.6 0 28.8 5.2 40 16s16.8 24 16.8 39.6c0 15.6-5.6 28.8-16.8 40s-24.4 16.8-40 16.8H343.2z m338.4-450l34 34c8.8 8.8 18.8 19.2 29.6 30 10.8 11.2 21.6 22 32.4 32.8 25.6 25.6 54.8 54.4 87.2 86.4l75.6-75.6-149.2-149.2c-8.4-8.4-15.6-15.6-21.2-21.6-5.6-6-8.8-9.2-9.6-10-2.8-2.4-6.4-4.8-10-7.6-3.6-2.8-7.2-4.8-10.8-6.8s-9.2-4-16.8-6.8c-7.6-2.8-15.2-5.2-22.8-7.6-7.6-2.4-15.2-4.4-22.4-6.4-7.2-1.6-12.4-2.8-16-3.6-7.2-1.2-12-0.4-14.4 2.8-2.4 2.8-2.8 8-1.6 15.2 0.4 3.6 1.6 8.8 3.6 16 1.6 7.2 4 14.4 6.4 22 2.4 7.6 4.8 14.4 6.8 21.2 2 6.4 3.6 11.2 4.8 13.6 3.6 8.4 8.4 15.2 14.4 21.2z"  horiz-adv-x="1069" />

    
    <glyph glyph-name="shanchu1" unicode="&#58883;" d="M820.205234 13.144215c0-35.222014-28.689931-63.911945-63.911945-63.911945H295.589349c-35.222014 0-63.911945 28.689931-63.911945 63.911945V691.8404h588.52783v-678.696185zM359.501294 806.600125c0 7.428643 5.763602 13.064165 13.064165 13.064165h307.392121c7.428643 0 13.064165-5.763602 13.064165-13.064165v-38.552095H359.501294V806.600125z m652.439775-38.424015H769.357454v38.424015c0 49.182739-40.217136 89.399875-89.399874 89.399875h-307.392121c-49.182739 0-89.399875-40.217136-89.399874-89.399875v-38.552095h-243.352096c-21.261288 0-38.552095-17.162727-38.552095-38.552095 0-21.261288 17.162727-38.552095 38.552095-38.552095h114.759725v-677.927705c0-77.87267 63.143465-141.016135 141.016135-141.016135h460.70394c77.87267 0 141.016135 63.143465 141.016135 141.016135v678.824265h114.759725c21.261288 0 38.552095 17.162727 38.552095 38.552095-0.12808 21.389368-17.290807 37.783615-38.680175 37.783615zM525.877279 64.760475c21.261288 0 38.552095 17.162727 38.552095 38.552095v409.85616c0 21.261288-17.162727 38.552095-38.552095 38.552096-21.261288 0-38.552095-17.162727-38.552095-38.552096v-409.85616c0-21.261288 17.290807-38.552095 38.552095-38.552095m-179.56823 0c21.261288 0 38.552095 17.162727 38.552095 38.552095v409.85616c0 21.261288-17.162727 38.552095-38.552095 38.552096-21.261288 0-38.552095-17.162727-38.552095-38.552096v-409.85616c0.89656-21.261288 18.059287-38.552095 38.552095-38.552095m359.136461 0c21.261288 0 38.552095 17.162727 38.552095 38.552095v409.85616c0 21.261288-17.162727 38.552095-38.552095 38.552096-21.261288 0-38.552095-17.162727-38.552096-38.552096v-409.85616c0-21.261288 17.162727-38.552095 38.552096-38.552095"  horiz-adv-x="1059" />

    
    <glyph glyph-name="daizu" unicode="&#59051;" d="M529.857871-128l-2.968229 0.620806c-3.550234 0.737207-34.920334 8.148078-48.248261 38.237766-13.58013 30.710494 3.317432 58.49156 5.27685 61.556789l1.358013 2.13402L810.88896 329.126575l325.593316-353.626584 1.183412-1.726617c2.09522-3.065229 20.098592-30.826895 6.363261-62.080594-12.901123-29.507682-43.592217-37.675161-47.045451-38.509369l-3.356232-0.814807z m2.696626 68.017051a9.079287 9.079287 0 0 1-0.659607-5.684254 11.213307 11.213307 0 0 1 5.451453-4.11284l547.880643 0.368604a11.911714 11.911714 0 0 1 5.529053 4.481443 8.652483 8.652483 0 0 1-0.756607 5.044048l-279.052271 303.0309zM810.88896 154.699506l-325.612716 354.635393-1.358013 2.134021c-1.940019 3.065229-18.77938 30.846295-5.29625 61.537389 13.289127 30.128488 44.717428 37.519959 48.267661 38.276566l2.968229 0.620806 563.788796-0.368603 3.356232-0.814808c3.453233-0.834208 34.144327-9.001686 47.06485-38.548169 13.715931-31.234299-4.287441-58.995965-6.382661-62.080594l-1.183411-1.726617z m-278.392664 389.167724l278.450865-303.108501 278.97467 302.9921a8.109278 8.109278 0 0 1 0.834208 5.082849 12.260917 12.260917 0 0 1-5.548453 4.520243l-547.861243 0.368603a11.232708 11.232708 0 0 1-5.451453-4.151639 9.40909 9.40909 0 0 1 0.601406-5.626054zM930.937309 328.913173l-120.22295-127.304019L690.64661 329.242976l-30.865696 33.057916 45.454635 0.174602 211.675426-0.232802 45.862039 0.0582-31.835705-33.387719zM387.69331-116.903094h-187.231192a29.100278 29.100278 0 0 0-29.100278 29.100279V288.405585H29.100278a29.100278 29.100278 0 0 0-20.699998 49.509274L549.277457 887.308717a29.100278 29.100278 0 0 0 40.74039 0.717807l176.308887-166.841597a29.160419 29.160419 0 1 0-40.119584-42.331205l-155.511888 147.286209L98.591744 346.606142h101.870374a29.100278 29.100278 0 0 0 29.100279-29.100278v-376.208401h158.092113a29.100278 29.100278 0 0 0 0-58.200557z"  horiz-adv-x="1149" />

    
    <glyph glyph-name="bianji5" unicode="&#58922;" d="M887.466667-128H136.533333a136.533333 136.533333 0 0 0-136.533333 136.533333V759.466667a136.533333 136.533333 0 0 0 136.533333 136.533333h494.933334a17.066667 17.066667 0 0 0 17.066666-17.066667v-34.133333a17.089422 17.089422 0 0 0-17.066666-17.066667H170.666667A102.4 102.4 0 0 1 68.266667 725.333333v-682.666666A102.4 102.4 0 0 1 170.666667-59.733333h682.666666a102.4 102.4 0 0 1 102.4 102.4V503.466667a17.089422 17.089422 0 0 0 17.066667 17.089422h34.133333a17.066667 17.066667 0 0 0 17.066667-17.089422V8.533333a136.533333 136.533333 0 0 0-136.533333-136.533333z m60.165689 812.509867L805.774222 818.449067l43.076267 43.235555a88.200533 88.200533 0 0 0 122.356622 1.934222l17.726578-16.725333a82.716444 82.716444 0 0 0 1.752178-119.170844zM271.701333 282.146133l141.858134-133.916444L204.8 76.8z m641.479111 367.752534L447.988622 182.818133l-141.835378 133.916445L771.413333 783.815111z"  horiz-adv-x="1024" />

    
    <glyph glyph-name="jia1" unicode="&#58884;" d="M512 827.23864709A443.23864709 443.23864709 0 1 0 68.76135291 384 443.23864709 443.23864709 0 0 0 512 827.23864709m0 63.31980689a506.55845398 506.55845398 0 1 1 506.55845398-506.55845398A506.55845398 506.55845398 0 0 1 512 890.55845398zM765.27922755 415.65990289H258.72077245a31.65990289 31.65990289 0 0 1 0-63.31980578h506.5584551a31.65990289 31.65990289 0 0 1 0 63.31980578zM512 668.93913044a31.65990289 31.65990289 0 0 1-31.65990289-31.65990289v-506.5584551a31.65990289 31.65990289 0 0 1 63.31980578 0V637.27922755a31.65990289 31.65990289 0 0 1-31.65990289 31.65990289z"  horiz-adv-x="1024" />

    
    <glyph glyph-name="kaoqin" unicode="&#58895;" d="M842.8 705.9h-63V786c0 16.6-13.4 30-30 30.2h-2.2c-16.7 0-30.2-13.6-30.2-30.3v-80.1H309.7V786c0 16.7-13.5 30.2-30.2 30.3h-2.2c-16.7 0-30.3-13.5-30.3-30.3v-80.1h-65.8c-55.5 0-100.4-44.9-100.6-100.4v-553.3c0.1-55.5 45.1-100.4 100.6-100.4h661.5c55.5 0.1 100.4 45 100.5 100.5V605.4c0 55.5-44.9 100.4-100.4 100.5z m-85.9-382.5L481.2 47.700000000000045c-7.8-7.7-18.3-12.1-29.3-12.3-10.6 0-20.7 4.2-28.2 11.7L274.3 196.29999999999995c-14.5 15.7-14 40.1 1.1 55.3 15.1 15.1 39.5 15.6 55.3 1.1l121.4-121.4 248.4 248.5c15.7 14.5 40.1 14 55.3-1.1 15.1-15.2 15.5-39.6 1.1-55.3z m115.4 161.1H153.4V623.2h718.9v-138.7z m0 0"  horiz-adv-x="1024" />

    


  </font>
</defs>
</svg>
